<svg xmlns="http://www.w3.org/2000/svg" width="1200" height="800" viewBox="0 0 1200 800">
  <defs>
    <style>
      .bg{fill:#0B0F14}.node{fill:#111827;stroke:#8B5CF6;stroke-width:1.4}.ext{fill:#111827;stroke:#22D3EE;stroke-width:1.4;stroke-dasharray:7 5}.data{fill:#111827;stroke:#F59E0B;stroke-width:1.4}.diamond{fill:#111827;stroke:#F59E0B;stroke-width:1.4}.text{fill:#E5E7EB;font:16px ui-monospace,SFMono-Regular,Menlo,Monaco,Consolas,monospace}.sub{fill:#9CA3AF;font:12px ui-monospace,SFMono-Regular,Menlo,Monaco,Consolas,monospace}.line{fill:none;stroke:#22D3EE;stroke-width:1.3;stroke-linejoin:round}
    </style>
  </defs>
  <rect class="bg" width="1200" height="800"/>
  <text x="60" y="60" class="text">repository-lifecycle-orchestrator / flow</text>

  <rect x="90" y="140" rx="14" ry="14" width="180" height="80" class="ext"/><text x="180" y="188" text-anchor="middle" class="text">Developer Trigger</text>
  <rect x="330" y="140" rx="14" ry="14" width="180" height="80" class="node"/><text x="420" y="188" text-anchor="middle" class="text">Runner Start</text>
  <rect x="570" y="140" rx="14" ry="14" width="180" height="80" class="data"/><text x="660" y="188" text-anchor="middle" class="text">Load Repo Config</text>
  <rect x="810" y="140" rx="14" ry="14" width="180" height="80" class="node"/><text x="900" y="188" text-anchor="middle" class="text">Policy Engine</text>

  <polygon points="900,300 980,370 900,440 820,370" class="diamond"/>
  <text x="900" y="366" text-anchor="middle" class="text">Compliant?</text>

  <rect x="730" y="560" rx="14" ry="14" width="180" height="80" class="node"/><text x="820" y="608" text-anchor="middle" class="text">Enforce Block</text>
  <rect x="970" y="560" rx="14" ry="14" width="180" height="80" class="node"/><text x="1060" y="608" text-anchor="middle" class="text">Enforce Pass</text>
  <rect x="915" y="690" rx="14" ry="14" width="180" height="70" class="data"/><text x="1005" y="732" text-anchor="middle" class="text">Output Logs</text>

  <path class="line" d="M270 180H330M510 180H570M750 180H900V300M860 410H820V560M940 410H1060V560M1005 640V690"/>
  <text x="850" y="500" class="sub">no</text>
  <text x="995" y="500" class="sub">yes</text>
</svg>
