<svg xmlns="http://www.w3.org/2000/svg" width="1200" height="800" viewBox="0 0 1200 800">
  <defs>
    <style>
      .bg{fill:#0B0F14}.node{fill:#111827;stroke:#8B5CF6;stroke-width:1.4}.ext{fill:#111827;stroke:#22D3EE;stroke-width:1.4;stroke-dasharray:7 5}.data{fill:#111827;stroke:#F59E0B;stroke-width:1.4}.diamond{fill:#111827;stroke:#F59E0B;stroke-width:1.4}.text{fill:#E5E7EB;font:16px ui-monospace,SFMono-Regular,Menlo,Monaco,Consolas,monospace}.sub{fill:#9CA3AF;font:12px ui-monospace,SFMono-Regular,Menlo,Monaco,Consolas,monospace}.line{fill:none;stroke:#22D3EE;stroke-width:1.3;stroke-linejoin:round}
    </style>
  </defs>
  <rect class="bg" width="1200" height="800"/>
  <text x="60" y="60" class="text">deterministic-publishing-pipeline / flow</text>

  <rect x="90" y="150" rx="14" ry="14" width="170" height="80" class="ext"/><text x="175" y="197" text-anchor="middle" class="text">Trigger</text>
  <rect x="310" y="150" rx="14" ry="14" width="170" height="80" class="node"/><text x="395" y="197" text-anchor="middle" class="text">Validate</text>
  <polygon points="615,150 695,220 615,290 535,220" class="diamond"/><text x="615" y="225" text-anchor="middle" class="text">Valid?</text>
  <rect x="760" y="150" rx="14" ry="14" width="170" height="80" class="node"/><text x="845" y="197" text-anchor="middle" class="text">Build</text>
  <rect x="980" y="150" rx="14" ry="14" width="170" height="80" class="ext"/><text x="1065" y="197" text-anchor="middle" class="text">Deploy</text>

  <rect x="760" y="430" rx="14" ry="14" width="190" height="80" class="node"/><text x="855" y="477" text-anchor="middle" class="text">Verify</text>
  <rect x="980" y="430" rx="14" ry="14" width="170" height="80" class="node"/><text x="1065" y="477" text-anchor="middle" class="text">Notify</text>
  <rect x="430" y="430" rx="14" ry="14" width="170" height="80" class="data"/><text x="515" y="477" text-anchor="middle" class="text">Failure State</text>

  <path class="line" d="M260 190H310M480 190H535M695 220H760V190M1065 230V430H950M535 220H515V430M950 470H980"/>
  <text x="506" y="210" class="sub">check</text>
  <text x="712" y="208" class="sub">yes</text>
  <text x="520" y="320" class="sub">no</text>
</svg>
