<svg xmlns="http://www.w3.org/2000/svg" width="1200" height="800" viewBox="0 0 1200 800">
  <defs>
    <style>
      .bg{fill:#0B0F14}.node{fill:#111827;stroke:#8B5CF6;stroke-width:1.4}.ext{fill:#111827;stroke:#22D3EE;stroke-width:1.4;stroke-dasharray:7 5}.data{fill:#111827;stroke:#F59E0B;stroke-width:1.4}.inner{fill:none;stroke:#F59E0B;stroke-width:1}.text{fill:#E5E7EB;font:16px ui-monospace,SFMono-Regular,Menlo,Monaco,Consolas,monospace}.sub{fill:#9CA3AF;font:12px ui-monospace,SFMono-Regular,Menlo,Monaco,Consolas,monospace}.line{fill:none;stroke:#22D3EE;stroke-width:1.3;stroke-linecap:round;stroke-linejoin:round}.glow{stroke:#8B5CF6;stroke-opacity:.16;stroke-width:8;fill:none}
    </style>
  </defs>
  <rect class="bg" width="1200" height="800"/>
  <text x="60" y="60" class="text">adaptive-proxy-routing-layer / architecture</text>
  <text x="60" y="84" class="sub">rule-driven geo-aware proxy selection with active health checks</text>

  <rect x="70" y="320" rx="14" ry="14" width="180" height="90" class="ext"/>
  <text x="160" y="358" text-anchor="middle" class="text">Client Device</text>
  <text x="160" y="380" text-anchor="middle" class="sub">request source</text>

  <rect x="320" y="320" rx="14" ry="14" width="180" height="90" class="node"/>
  <text x="410" y="358" text-anchor="middle" class="text">Rule Engine</text>
  <text x="410" y="380" text-anchor="middle" class="sub">policy evaluation</text>

  <rect x="580" y="140" rx="14" ry="14" width="190" height="90" class="node"/>
  <text x="675" y="178" text-anchor="middle" class="text">Geo Routing Layer</text>
  <text x="675" y="200" text-anchor="middle" class="sub">region selection</text>

  <rect x="580" y="320" rx="14" ry="14" width="190" height="90" class="data"/>
  <rect x="588" y="328" rx="10" ry="10" width="174" height="74" class="inner"/>
  <text x="675" y="358" text-anchor="middle" class="text">Proxy Pool</text>
  <text x="675" y="380" text-anchor="middle" class="sub">eligible endpoints</text>

  <rect x="580" y="500" rx="14" ry="14" width="190" height="90" class="node"/>
  <text x="675" y="538" text-anchor="middle" class="text">Health Check System</text>
  <text x="675" y="560" text-anchor="middle" class="sub">latency + availability</text>

  <rect x="930" y="320" rx="14" ry="14" width="190" height="90" class="ext"/>
  <text x="1025" y="358" text-anchor="middle" class="text">Target Services</text>
  <text x="1025" y="380" text-anchor="middle" class="sub">origin endpoints</text>

  <path class="glow" d="M250 365H320M500 365H540V185H580M500 365H580M500 365H540V545H580M770 185H840V365H930M770 365H930M770 545H840V365H930"/>
  <path class="line" d="M250 365H320"/>
  <path class="line" d="M500 365H540V185H580"/>
  <path class="line" d="M500 365H580"/>
  <path class="line" d="M500 365H540V545H580"/>
  <path class="line" d="M770 185H840V365H930"/>
  <path class="line" d="M770 365H930"/>
  <path class="line" d="M770 545H840V365H930"/>
  <text x="274" y="352" class="sub">request</text>
  <text x="540" y="175" class="sub">geo</text>
  <text x="535" y="352" class="sub">select</text>
  <text x="540" y="535" class="sub">health</text>
  <text x="846" y="355" class="sub">route</text>
</svg>
