<svg xmlns="http://www.w3.org/2000/svg" width="1200" height="800" viewBox="0 0 1200 800">
  <defs>
    <style>
      .bg{fill:#0B0F14}.node{fill:#111827;stroke:#8B5CF6;stroke-width:1.4}.ext{fill:#111827;stroke:#22D3EE;stroke-width:1.4;stroke-dasharray:7 5}.data{fill:#111827;stroke:#F59E0B;stroke-width:1.4}.text{fill:#E5E7EB;font:16px ui-monospace,SFMono-Regular,Menlo,Monaco,Consolas,monospace}.sub{fill:#9CA3AF;font:12px ui-monospace,SFMono-Regular,Menlo,Monaco,Consolas,monospace}.line{fill:none;stroke:#22D3EE;stroke-width:1.3;stroke-linejoin:round}
    </style>
  </defs>
  <rect class="bg" width="1200" height="800"/>
  <text x="60" y="60" class="text">cryptovault-platform-architecture / flow</text>

  <rect x="90" y="170" rx="14" ry="14" width="190" height="80" class="node"/><text x="185" y="217" text-anchor="middle" class="text">UI Interaction</text>
  <rect x="340" y="170" rx="14" ry="14" width="190" height="80" class="node"/><text x="435" y="217" text-anchor="middle" class="text">Component Render</text>
  <rect x="590" y="170" rx="14" ry="14" width="190" height="80" class="data"/><text x="685" y="217" text-anchor="middle" class="text">State Update</text>
  <rect x="840" y="170" rx="14" ry="14" width="190" height="80" class="node"/><text x="935" y="217" text-anchor="middle" class="text">API Request</text>
  <rect x="840" y="450" rx="14" ry="14" width="190" height="80" class="ext"/><text x="935" y="497" text-anchor="middle" class="text">Service Integration</text>
  <rect x="590" y="450" rx="14" ry="14" width="190" height="80" class="node"/><text x="685" y="497" text-anchor="middle" class="text">Deploy Runtime</text>

  <path class="line" d="M280 210H340M530 210H590M780 210H840M935 250V450M840 490H780V490H685V530"/>
  <text x="801" y="476" class="sub">resolve</text>
</svg>
