<svg xmlns="http://www.w3.org/2000/svg" width="1200" height="800" viewBox="0 0 1200 800">
  <defs>
    <style>
      .bg{fill:#0B0F14}.node{fill:#111827;stroke:#8B5CF6;stroke-width:1.4}.ext{fill:#111827;stroke:#22D3EE;stroke-width:1.4;stroke-dasharray:7 5}.data{fill:#111827;stroke:#F59E0B;stroke-width:1.4}.diamond{fill:#111827;stroke:#F59E0B;stroke-width:1.4}.text{fill:#E5E7EB;font:16px ui-monospace,SFMono-Regular,Menlo,Monaco,Consolas,monospace}.sub{fill:#9CA3AF;font:12px ui-monospace,SFMono-Regular,Menlo,Monaco,Consolas,monospace}.line{fill:none;stroke:#22D3EE;stroke-width:1.3;stroke-linejoin:round}
    </style>
  </defs>
  <rect class="bg" width="1200" height="800"/>
  <text x="60" y="60" class="text">adaptive-proxy-routing-layer / flow</text>

  <rect x="90" y="160" rx="14" ry="14" width="170" height="80" class="ext"/><text x="175" y="207" text-anchor="middle" class="text">Client Request</text>
  <rect x="310" y="160" rx="14" ry="14" width="170" height="80" class="node"/><text x="395" y="207" text-anchor="middle" class="text">Rule Engine</text>
  <rect x="530" y="160" rx="14" ry="14" width="170" height="80" class="node"/><text x="615" y="207" text-anchor="middle" class="text">Geo Route</text>
  <rect x="750" y="160" rx="14" ry="14" width="170" height="80" class="data"/><text x="835" y="207" text-anchor="middle" class="text">Proxy Pool</text>
  <polygon points="835,340 915,410 835,480 755,410" class="diamond"/><text x="835" y="415" text-anchor="middle" class="text">Healthy?</text>
  <rect x="970" y="160" rx="14" ry="14" width="170" height="80" class="ext"/><text x="1055" y="207" text-anchor="middle" class="text">Target Service</text>
  <rect x="620" y="560" rx="14" ry="14" width="190" height="80" class="node"/><text x="715" y="607" text-anchor="middle" class="text">Health Check</text>

  <path class="line" d="M260 200H310M480 200H530M700 200H750M835 240V340M915 410H970V200M795 450L715 560"/>
  <text x="950" y="395" class="sub">yes</text>
  <text x="760" y="520" class="sub">no -> refresh</text>
</svg>
